<svg width="398" height="100" viewBox="0 0 398 100" fill="none" xmlns="http://www.w3.org/2000/svg">
<path d="M25.5744 38H20.1984L8.0256 19.6064V38H2.6496V11.1584H8.0256L20.1984 29.5904V11.1584H25.5744V38ZM47.3223 32.8928H36.6471L34.8807 38H29.2359L38.8743 11.1584H45.1335L54.7719 38H49.0887L47.3223 32.8928ZM45.8631 28.592L41.9847 17.3792L38.1063 28.592H45.8631ZM81.2994 38H75.9234L63.7506 19.6064V38H58.3746V11.1584H63.7506L75.9234 29.5904V11.1584H81.2994V38ZM99.0537 38.2688C96.5449 38.2688 94.2409 37.68 92.1417 36.5024C90.0425 35.3248 88.3785 33.6992 87.1497 31.6256C85.9209 29.5264 85.3065 27.1584 85.3065 24.5216C85.3065 21.9104 85.9209 19.568 87.1497 17.4944C88.3785 15.3952 90.0425 13.7568 92.1417 12.5792C94.2409 11.4016 96.5449 10.8128 99.0537 10.8128C101.588 10.8128 103.892 11.4016 105.966 12.5792C108.065 13.7568 109.716 15.3952 110.919 17.4944C112.148 19.568 112.763 21.9104 112.763 24.5216C112.763 27.1584 112.148 29.5264 110.919 31.6256C109.716 33.6992 108.065 35.3248 105.966 36.5024C103.867 37.68 101.563 38.2688 99.0537 38.2688ZM99.0537 33.4688C100.667 33.4688 102.087 33.1104 103.316 32.3936C104.545 31.6512 105.505 30.6016 106.196 29.2448C106.887 27.888 107.233 26.3136 107.233 24.5216C107.233 22.7296 106.887 21.168 106.196 19.8368C105.505 18.48 104.545 17.4432 103.316 16.7264C102.087 16.0096 100.667 15.6512 99.0537 15.6512C97.4409 15.6512 96.0073 16.0096 94.7529 16.7264C93.5241 17.4432 92.5641 18.48 91.8729 19.8368C91.1817 21.168 90.8361 22.7296 90.8361 24.5216C90.8361 26.3136 91.1817 27.888 91.8729 29.2448C92.5641 30.6016 93.5241 31.6512 94.7529 32.3936C96.0073 33.1104 97.4409 33.4688 99.0537 33.4688ZM126.017 38.2688C124.148 38.2688 122.458 37.9488 120.948 37.3088C119.463 36.6688 118.285 35.7472 117.415 34.544C116.545 33.3408 116.097 31.92 116.071 30.2816H121.831C121.908 31.3824 122.292 32.2528 122.983 32.8928C123.7 33.5328 124.673 33.8528 125.901 33.8528C127.156 33.8528 128.141 33.5584 128.858 32.9696C129.575 32.3552 129.933 31.5616 129.933 30.5888C129.933 29.7952 129.69 29.1424 129.204 28.6304C128.717 28.1184 128.103 27.7216 127.361 27.44C126.644 27.1328 125.645 26.8 124.365 26.4416C122.625 25.9296 121.204 25.4304 120.103 24.944C119.028 24.432 118.093 23.6768 117.3 22.6784C116.532 21.6544 116.148 20.2976 116.148 18.608C116.148 17.0208 116.545 15.6384 117.338 14.4608C118.132 13.2832 119.245 12.3872 120.679 11.7728C122.113 11.1328 123.751 10.8128 125.594 10.8128C128.359 10.8128 130.599 11.4912 132.314 12.848C134.055 14.1792 135.015 16.048 135.194 18.4544H129.281C129.229 17.5328 128.833 16.7776 128.09 16.1888C127.373 15.5744 126.413 15.2672 125.21 15.2672C124.161 15.2672 123.316 15.536 122.676 16.0736C122.061 16.6112 121.754 17.392 121.754 18.416C121.754 19.1328 121.985 19.7344 122.445 20.2208C122.932 20.6816 123.521 21.0656 124.212 21.3728C124.929 21.6544 125.927 21.9872 127.207 22.3712C128.948 22.8832 130.369 23.3952 131.469 23.9072C132.57 24.4192 133.517 25.1872 134.311 26.2112C135.105 27.2352 135.501 28.5792 135.501 30.2432C135.501 31.6768 135.13 33.008 134.388 34.2368C133.645 35.4656 132.557 36.4512 131.124 37.1936C129.69 37.9104 127.988 38.2688 126.017 38.2688ZM145.538 11.1968V38H140.162V11.1968H145.538ZM166.901 38L161.102 28.976L155.842 38H149.774L158.222 24.4832L149.659 11.1968H155.842L161.64 20.1824L166.862 11.1968H172.93L164.52 24.6752L173.083 38H166.901ZM191.701 15.536V22.256H200.725V26.5184H191.701V33.6224H201.877V38H186.325V11.1584H201.877V15.536H191.701ZM229.687 38H224.311L212.138 19.6064V38H206.762V11.1584H212.138L224.311 29.5904V11.1584H229.687V38ZM240.491 33.4688H252.548V38H234.27V33.8528L246.251 15.728H234.27V11.1968H252.548V15.344L240.491 33.4688ZM278.437 11.1968L269.374 28.6688V38H263.998V28.6688L254.897 11.1968H260.965L266.725 23.4464L272.446 11.1968H278.437ZM310.76 11.1968V38H305.384V20.5664L298.203 38H294.132L286.913 20.5664V38H281.537V11.1968H287.643L296.168 31.1264L304.692 11.1968H310.76ZM321.451 15.536V22.256H330.475V26.5184H321.451V33.6224H331.627V38H316.075V11.1584H331.627V15.536H321.451ZM8.0256 61.1968V88H2.6496V61.1968H8.0256ZM42.5595 61.1968V88H37.1835V70.5664L30.0027 88H25.9323L18.7131 70.5664V88H13.3371V61.1968H19.4427L27.9675 81.1264L36.4923 61.1968H42.5595ZM77.097 61.1968V88H71.721V70.5664L64.5402 88H60.4698L53.2506 70.5664V88H47.8746V61.1968H53.9802L62.505 81.1264L71.0298 61.1968H77.097ZM94.8537 88.2688C92.3449 88.2688 90.0409 87.68 87.9417 86.5024C85.8425 85.3248 84.1785 83.6992 82.9497 81.6256C81.7209 79.5264 81.1065 77.1584 81.1065 74.5216C81.1065 71.9104 81.7209 69.568 82.9497 67.4944C84.1785 65.3952 85.8425 63.7568 87.9417 62.5792C90.0409 61.4016 92.3449 60.8128 94.8537 60.8128C97.3881 60.8128 99.6921 61.4016 101.766 62.5792C103.865 63.7568 105.516 65.3952 106.719 67.4944C107.948 69.568 108.563 71.9104 108.563 74.5216C108.563 77.1584 107.948 79.5264 106.719 81.6256C105.516 83.6992 103.865 85.3248 101.766 86.5024C99.6665 87.68 97.3625 88.2688 94.8537 88.2688ZM94.8537 83.4688C96.4665 83.4688 97.8873 83.1104 99.1161 82.3936C100.345 81.6512 101.305 80.6016 101.996 79.2448C102.687 77.888 103.033 76.3136 103.033 74.5216C103.033 72.7296 102.687 71.168 101.996 69.8368C101.305 68.48 100.345 67.4432 99.1161 66.7264C97.8873 66.0096 96.4665 65.6512 94.8537 65.6512C93.2409 65.6512 91.8073 66.0096 90.5529 66.7264C89.3241 67.4432 88.3641 68.48 87.6729 69.8368C86.9817 71.168 86.6361 72.7296 86.6361 74.5216C86.6361 76.3136 86.9817 77.888 87.6729 79.2448C88.3641 80.6016 89.3241 81.6512 90.5529 82.3936C91.8073 83.1104 93.2409 83.4688 94.8537 83.4688ZM127.769 74.2528C129.279 74.5344 130.521 75.2896 131.493 76.5184C132.466 77.7472 132.953 79.1552 132.953 80.7424C132.953 82.176 132.594 83.4432 131.877 84.544C131.186 85.6192 130.175 86.464 128.844 87.0784C127.513 87.6928 125.938 88 124.121 88H112.562V61.1968H123.621C125.439 61.1968 127.001 61.4912 128.306 62.08C129.637 62.6688 130.636 63.488 131.301 64.5376C131.993 65.5872 132.338 66.7776 132.338 68.1088C132.338 69.6704 131.916 70.976 131.071 72.0256C130.252 73.0752 129.151 73.8176 127.769 74.2528ZM117.938 72.256H122.853C124.133 72.256 125.119 71.9744 125.81 71.4112C126.501 70.8224 126.847 69.9904 126.847 68.9152C126.847 67.84 126.501 67.008 125.81 66.4192C125.119 65.8304 124.133 65.536 122.853 65.536H117.938V72.256ZM123.353 83.6224C124.658 83.6224 125.669 83.3152 126.386 82.7008C127.129 82.0864 127.5 81.216 127.5 80.0896C127.5 78.9376 127.116 78.0416 126.348 77.4016C125.58 76.736 124.543 76.4032 123.237 76.4032H117.938V83.6224H123.353ZM142.613 61.1968V88H137.237V61.1968H142.613ZM153.301 83.7376H162.133V88H147.925V61.1968H153.301V83.7376ZM170.926 61.1968V88H165.55V61.1968H170.926ZM194.477 61.1968V65.536H187.335V88H181.959V65.536H174.816V61.1968H194.477ZM214.835 82.8928H204.16L202.393 88H196.748L206.387 61.1584H212.646L222.284 88H216.601L214.835 82.8928ZM213.376 78.592L209.497 67.3792L205.619 78.592H213.376ZM244.127 61.1968V65.536H236.985V88H231.609V65.536H224.466V61.1968H244.127ZM253.426 61.1968V88H248.05V61.1968H253.426ZM271.179 88.2688C268.67 88.2688 266.366 87.68 264.267 86.5024C262.168 85.3248 260.504 83.6992 259.275 81.6256C258.046 79.5264 257.432 77.1584 257.432 74.5216C257.432 71.9104 258.046 69.568 259.275 67.4944C260.504 65.3952 262.168 63.7568 264.267 62.5792C266.366 61.4016 268.67 60.8128 271.179 60.8128C273.713 60.8128 276.017 61.4016 278.091 62.5792C280.19 63.7568 281.841 65.3952 283.044 67.4944C284.273 69.568 284.888 71.9104 284.888 74.5216C284.888 77.1584 284.273 79.5264 283.044 81.6256C281.841 83.6992 280.19 85.3248 278.091 86.5024C275.992 87.68 273.688 88.2688 271.179 88.2688ZM271.179 83.4688C272.792 83.4688 274.212 83.1104 275.441 82.3936C276.67 81.6512 277.63 80.6016 278.321 79.2448C279.012 77.888 279.358 76.3136 279.358 74.5216C279.358 72.7296 279.012 71.168 278.321 69.8368C277.63 68.48 276.67 67.4432 275.441 66.7264C274.212 66.0096 272.792 65.6512 271.179 65.6512C269.566 65.6512 268.132 66.0096 266.878 66.7264C265.649 67.4432 264.689 68.48 263.998 69.8368C263.307 71.168 262.961 72.7296 262.961 74.5216C262.961 76.3136 263.307 77.888 263.998 79.2448C264.689 80.6016 265.649 81.6512 266.878 82.3936C268.132 83.1104 269.566 83.4688 271.179 83.4688ZM311.812 88H306.436L294.263 69.6064V88H288.887V61.1584H294.263L306.436 79.5904V61.1584H311.812V88Z" fill="#F6F6E4"/>
</svg>
