<svg width="642" height="100" viewBox="0 0 642 100" fill="none" xmlns="http://www.w3.org/2000/svg">
<path d="M397.515 2.74216C396.488 1.03993 394.648 2.08271e-06 392.663 2.01401e-06L353.26 6.50004e-07L344.022 16.0166C345.112 14.8232 346.651 14.1432 348.265 14.1421L384.431 14.119L404.383 14.1177L397.515 2.74216Z" fill="#AAB952"/>
<path d="M384.431 14.119C386.004 14.539 387.347 15.5668 388.165 16.9775L406.48 48.5298L416.509 65.9187L424.313 53.0376C425.41 51.2261 425.412 48.953 424.317 47.1397L404.383 14.1177L384.431 14.119Z" fill="#D5D170"/>
<path d="M406.48 48.5298C406.722 50.1222 406.413 51.7499 405.602 53.1408L387.488 84.2342L378.395 100H392.669C394.65 100 396.488 98.9634 397.517 97.2656L416.509 65.9187L406.48 48.5298Z" fill="#2E6514"/>
<path d="M387.488 84.2342C386.334 85.3332 384.803 85.9459 383.212 85.9459H347.172H326.517L332.908 97.1385C333.918 98.9082 335.796 100 337.83 100H378.395L387.488 84.2342Z" fill="#15570B"/>
<path d="M347.172 85.9459C345.589 85.4841 344.25 84.4154 343.447 82.9711L326.059 51.7117L315.509 33.4198L307.646 47.2685C306.653 49.0171 306.656 51.1616 307.653 52.9078L326.517 85.9459H347.172Z" fill="#528247"/>
<path d="M326.059 51.7117C325.714 50.2037 325.939 48.6213 326.689 47.2693L344.022 16.0166L353.26 6.50004e-07L337.78 1.14153e-07C335.742 4.35816e-08 333.86 1.09707 332.851 2.87355L315.509 33.4198L326.059 51.7117Z" fill="#7D9D3A"/>
<path d="M0 98.0411V1.95891C0 0.818463 0.711061 0.105687 1.84876 0.105687H3.98195C4.97744 0.105687 6.25735 0.675909 6.96841 1.38868L61.4358 59.9789C62.1468 60.6917 62.5735 60.9768 63.1423 60.9768C63.7112 60.9768 64.1378 60.264 64.1378 58.8384V1.95891C64.1378 0.818463 64.8489 0.105687 65.9866 0.105687H79.3545C80.4922 0.105687 81.2033 0.818463 81.2033 1.95891V98.0411C81.2033 99.1816 80.4922 99.8944 79.3545 99.8944H77.3636C76.2259 99.8944 74.946 99.3241 74.2349 98.4688L19.7675 39.736C19.1987 39.0233 18.6298 38.7382 18.061 38.7382C17.4921 38.7382 17.0655 39.4509 17.0655 40.8765V98.0411C17.0655 99.1816 16.3544 99.8944 15.2167 99.8944H1.84876C0.711061 99.8944 0 99.1816 0 98.0411Z" fill="#303030"/>
<path d="M98.931 99.8944C97.7933 99.8944 97.3666 99.1816 97.7933 98.1837L142.732 1.38494C143.017 0.67216 144.012 0.101937 144.866 0.101937C145.719 0.101937 146.572 0.67216 146.857 1.38494L191.796 98.1837C192.222 99.1816 191.796 99.8944 190.658 99.8944H176.721C175.583 99.8944 174.446 99.1816 174.019 98.1837L170.037 89.4878C169.042 87.3495 166.766 85.9239 164.349 85.9239H125.24C122.823 85.9239 120.547 87.3495 119.552 89.4878L115.57 98.1837C115.143 99.1816 114.005 99.8944 113.01 99.8944H98.931ZM130.218 66.2513C129.222 68.5322 130.218 69.9578 132.635 69.9578H157.096C159.513 69.9578 160.367 68.5322 159.371 66.2513L146.572 38.3105C146.003 37.17 145.434 36.5998 144.866 36.5998C144.297 36.5998 143.728 37.17 143.159 38.3105L130.218 66.2513Z" fill="#303030"/>
<path d="M208.458 98.0411V1.95891C208.458 0.818463 209.169 0.105687 210.307 0.105687H212.44C213.435 0.105687 214.715 0.675909 215.426 1.38868L269.894 59.9789C270.605 60.6917 271.031 60.9768 271.6 60.9768C272.169 60.9768 272.596 60.264 272.596 58.8384V1.95891C272.596 0.818463 273.307 0.105687 274.444 0.105687H287.812C288.95 0.105687 289.661 0.818463 289.661 1.95891V98.0411C289.661 99.1816 288.95 99.8944 287.812 99.8944H285.821C284.684 99.8944 283.404 99.3241 282.693 98.4688L228.225 39.736C227.657 39.0233 227.088 38.7382 226.519 38.7382C225.95 38.7382 225.523 39.4509 225.523 40.8765V98.0411C225.523 99.1816 224.812 99.8944 223.675 99.8944H210.307C209.169 99.8944 208.458 99.1816 208.458 98.0411Z" fill="#303030"/>
<path d="M527.483 1.85322C527.483 0.712776 528.194 0 529.332 0H542.7C543.838 0 544.549 0.712776 544.549 1.85322V97.9354C544.549 99.0759 543.838 99.7887 542.7 99.7887H529.332C528.194 99.7887 527.483 99.0759 527.483 97.9354V1.85322Z" fill="#303030"/>
<path fill-rule="evenodd" clip-rule="evenodd" d="M561.537 1.56811C560.969 0.570222 561.253 0 562.391 0H578.603C579.741 0 580.878 0.570222 581.447 1.56811L613.655 53.1968C613.679 53.2368 613.704 53.2764 613.729 53.3157L641.745 98.2206C642.314 99.2184 641.887 99.7887 640.892 99.7887H624.68C623.542 99.7887 622.404 99.2184 621.835 98.2206L603.774 69.2819C603.063 68.284 602.352 67.7137 601.641 67.7137C600.93 67.7137 600.219 68.284 599.508 69.2819L581.447 98.2206C580.878 99.2184 579.741 99.7887 578.603 99.7887H562.391C561.253 99.7887 560.969 99.2184 561.537 98.2206L589.553 53.3157C590.833 51.3199 590.833 48.4688 589.553 46.473L561.537 1.56811Z" fill="#303030"/>
<path d="M621.835 1.56811L605.927 27.843C605.449 28.6315 605.459 29.6232 605.952 30.4021L614.379 43.7236C614.754 44.3158 615.618 44.3091 615.983 43.7112L641.745 1.56811C642.314 0.570222 641.887 0 640.892 0H624.68C623.542 0 622.404 0.570222 621.835 1.56811Z" fill="#7D9D3A"/>
<path d="M442.827 85.2243C442.168 84.4327 442.3 83.5092 443.09 82.8496L452.704 75.3298C453.494 74.8021 454.416 74.8021 455.074 75.5937C460.869 82.3219 469.693 84.4327 478.253 84.4327C485.233 84.4327 495.636 81.7942 495.636 73.0871C495.636 55.409 444.407 57.2559 444.407 27.0448C444.407 8.97098 459.42 0 476.014 0C487.34 0 498.402 5.14512 507.094 12.4011C507.884 13.0607 507.884 14.1161 507.226 14.7757L499.192 23.8786C498.402 24.6702 497.48 24.6702 496.822 24.0105C490.895 18.7335 483.521 15.5673 475.487 15.5673C467.585 15.5673 459.947 18.3377 459.947 27.5726C459.947 43.4037 511.176 41.2929 511.176 73.6148C511.176 91.5567 493.529 100 477.726 100C464.688 100 451.255 95.5145 442.827 85.2243Z" fill="#303030"/>
</svg>
