<svg width="326" height="100" viewBox="0 0 326 100" fill="none" xmlns="http://www.w3.org/2000/svg">
<path d="M1.344 49.56C1.344 46.9232 1.9328 44.568 3.1104 42.4944C4.3136 40.3952 5.9392 38.7696 7.9872 37.6176C10.0608 36.44 12.3776 35.8512 14.9376 35.8512C17.9328 35.8512 20.5568 36.6192 22.8096 38.1552C25.0624 39.6912 26.6368 41.816 27.5328 44.5296H21.3504C20.736 43.2496 19.8656 42.2896 18.7392 41.6496C17.6384 41.0096 16.3584 40.6896 14.8992 40.6896C13.3376 40.6896 11.9424 41.0608 10.7136 41.8032C9.5104 42.52 8.5632 43.544 7.872 44.8752C7.2064 46.2064 6.8736 47.768 6.8736 49.56C6.8736 51.3264 7.2064 52.888 7.872 54.2448C8.5632 55.576 9.5104 56.6128 10.7136 57.3552C11.9424 58.072 13.3376 58.4304 14.8992 58.4304C16.3584 58.4304 17.6384 58.1104 18.7392 57.4704C19.8656 56.8048 20.736 55.832 21.3504 54.552H27.5328C26.6368 57.2912 25.0624 59.4288 22.8096 60.9648C20.5824 62.4752 17.9584 63.2304 14.9376 63.2304C12.3776 63.2304 10.0608 62.6544 7.9872 61.5024C5.9392 60.3248 4.3136 58.6992 3.1104 56.6256C1.9328 54.552 1.344 52.1968 1.344 49.56ZM37.5006 36.1968V63H32.1246V36.1968H37.5006ZM48.1881 58.7376H57.0201V63H42.8121V36.1968H48.1881V58.7376ZM65.8131 36.1968V63H60.4371V36.1968H65.8131ZM91.0926 67.7232L87.0222 62.8464C85.8958 63.128 84.7438 63.2688 83.5662 63.2688C81.0574 63.2688 78.7534 62.68 76.6542 61.5024C74.555 60.3248 72.891 58.6992 71.6622 56.6256C70.4334 54.5264 69.819 52.1584 69.819 49.5216C69.819 46.9104 70.4334 44.568 71.6622 42.4944C72.891 40.3952 74.555 38.7568 76.6542 37.5792C78.7534 36.4016 81.0574 35.8128 83.5662 35.8128C86.1006 35.8128 88.4046 36.4016 90.4782 37.5792C92.5774 38.7568 94.2286 40.3952 95.4318 42.4944C96.6606 44.568 97.275 46.9104 97.275 49.5216C97.275 51.9024 96.763 54.0784 95.739 56.0496C94.7406 57.9952 93.371 59.5824 91.6302 60.8112L97.7742 67.7232H91.0926ZM75.3486 49.5216C75.3486 51.3136 75.6942 52.888 76.3854 54.2448C77.0766 55.6016 78.0366 56.6512 79.2654 57.3936C80.5198 58.1104 81.9534 58.4688 83.5662 58.4688C85.179 58.4688 86.5998 58.1104 87.8286 57.3936C89.0574 56.6512 90.0174 55.6016 90.7086 54.2448C91.3998 52.888 91.7454 51.3136 91.7454 49.5216C91.7454 47.7296 91.3998 46.168 90.7086 44.8368C90.0174 43.48 89.0574 42.4432 87.8286 41.7264C86.5998 41.0096 85.179 40.6512 83.5662 40.6512C81.9534 40.6512 80.5198 41.0096 79.2654 41.7264C78.0366 42.4432 77.0766 43.48 76.3854 44.8368C75.6942 46.168 75.3486 47.7296 75.3486 49.5216ZM115.799 36.1968V52.7856C115.799 54.6032 116.272 55.9984 117.22 56.9712C118.167 57.9184 119.498 58.392 121.213 58.392C122.954 58.392 124.298 57.9184 125.245 56.9712C126.192 55.9984 126.666 54.6032 126.666 52.7856V36.1968H132.08V52.7472C132.08 55.0256 131.581 56.9584 130.583 58.5456C129.61 60.1072 128.292 61.2848 126.628 62.0784C124.989 62.872 123.159 63.2688 121.136 63.2688C119.14 63.2688 117.322 62.872 115.684 62.0784C114.071 61.2848 112.791 60.1072 111.844 58.5456C110.896 56.9584 110.423 55.0256 110.423 52.7472V36.1968H115.799ZM155.937 44.2608C155.323 43.1344 154.478 42.2768 153.403 41.688C152.327 41.0992 151.073 40.8048 149.639 40.8048C148.052 40.8048 146.644 41.1632 145.415 41.88C144.187 42.5968 143.227 43.6208 142.535 44.952C141.844 46.2832 141.499 47.8192 141.499 49.56C141.499 51.352 141.844 52.9136 142.535 54.2448C143.252 55.576 144.238 56.6 145.492 57.3168C146.747 58.0336 148.206 58.392 149.87 58.392C151.918 58.392 153.595 57.8544 154.9 56.7792C156.206 55.6784 157.063 54.1552 157.473 52.2096H148.257V48.1008H162.772V52.7856C162.414 54.6544 161.646 56.3824 160.468 57.9696C159.291 59.5568 157.767 60.8368 155.899 61.8096C154.055 62.7568 151.982 63.2304 149.678 63.2304C147.092 63.2304 144.75 62.6544 142.651 61.5024C140.577 60.3248 138.939 58.6992 137.735 56.6256C136.558 54.552 135.969 52.1968 135.969 49.56C135.969 46.9232 136.558 44.568 137.735 42.4944C138.939 40.3952 140.577 38.7696 142.651 37.6176C144.75 36.44 147.079 35.8512 149.639 35.8512C152.66 35.8512 155.284 36.5936 157.511 38.0784C159.739 39.5376 161.275 41.5984 162.119 44.2608H155.937ZM172.126 40.536V47.256H181.15V51.5184H172.126V58.6224H182.302V63H166.75V36.1584H182.302V40.536H172.126ZM210.112 63H204.736L192.563 44.6064V63H187.187V36.1584H192.563L204.736 54.5904V36.1584H210.112V63ZM220.801 36.1968V63H215.425V36.1968H220.801ZM242.163 63L236.365 53.976L231.104 63H225.037L233.485 49.4832L224.922 36.1968H231.104L236.903 45.1824L242.125 36.1968H248.192L239.783 49.6752L248.346 63H242.163Z" fill="#303030"/>
</svg>
