<svg width="408" height="100" viewBox="0 0 408 100" fill="none" xmlns="http://www.w3.org/2000/svg">
<path d="M25.5744 63H20.1984L8.0256 44.6064V63H2.6496V36.1584H8.0256L20.1984 54.5904V36.1584H25.5744V63ZM47.3223 57.8928H36.6471L34.8807 63H29.2359L38.8743 36.1584H45.1335L54.7719 63H49.0887L47.3223 57.8928ZM45.8631 53.592L41.9847 42.3792L38.1063 53.592H45.8631ZM81.2994 63H75.9234L63.7506 44.6064V63H58.3746V36.1584H63.7506L75.9234 54.5904V36.1584H81.2994V63ZM99.0537 63.2688C96.5449 63.2688 94.2409 62.68 92.1417 61.5024C90.0425 60.3248 88.3785 58.6992 87.1497 56.6256C85.9209 54.5264 85.3065 52.1584 85.3065 49.5216C85.3065 46.9104 85.9209 44.568 87.1497 42.4944C88.3785 40.3952 90.0425 38.7568 92.1417 37.5792C94.2409 36.4016 96.5449 35.8128 99.0537 35.8128C101.588 35.8128 103.892 36.4016 105.966 37.5792C108.065 38.7568 109.716 40.3952 110.919 42.4944C112.148 44.568 112.763 46.9104 112.763 49.5216C112.763 52.1584 112.148 54.5264 110.919 56.6256C109.716 58.6992 108.065 60.3248 105.966 61.5024C103.867 62.68 101.563 63.2688 99.0537 63.2688ZM99.0537 58.4688C100.667 58.4688 102.087 58.1104 103.316 57.3936C104.545 56.6512 105.505 55.6016 106.196 54.2448C106.887 52.888 107.233 51.3136 107.233 49.5216C107.233 47.7296 106.887 46.168 106.196 44.8368C105.505 43.48 104.545 42.4432 103.316 41.7264C102.087 41.0096 100.667 40.6512 99.0537 40.6512C97.4409 40.6512 96.0073 41.0096 94.7529 41.7264C93.5241 42.4432 92.5641 43.48 91.8729 44.8368C91.1817 46.168 90.8361 47.7296 90.8361 49.5216C90.8361 51.3136 91.1817 52.888 91.8729 54.2448C92.5641 55.6016 93.5241 56.6512 94.7529 57.3936C96.0073 58.1104 97.4409 58.4688 99.0537 58.4688ZM115.457 49.56C115.457 46.9232 116.045 44.568 117.223 42.4944C118.426 40.3952 120.052 38.7696 122.1 37.6176C124.173 36.44 126.49 35.8512 129.05 35.8512C132.045 35.8512 134.669 36.6192 136.922 38.1552C139.175 39.6912 140.749 41.816 141.645 44.5296H135.463C134.849 43.2496 133.978 42.2896 132.852 41.6496C131.751 41.0096 130.471 40.6896 129.012 40.6896C127.45 40.6896 126.055 41.0608 124.826 41.8032C123.623 42.52 122.676 43.544 121.985 44.8752C121.319 46.2064 120.986 47.768 120.986 49.56C120.986 51.3264 121.319 52.888 121.985 54.2448C122.676 55.576 123.623 56.6128 124.826 57.3552C126.055 58.072 127.45 58.4304 129.012 58.4304C130.471 58.4304 131.751 58.1104 132.852 57.4704C133.978 56.8048 134.849 55.832 135.463 54.552H141.645C140.749 57.2912 139.175 59.4288 136.922 60.9648C134.695 62.4752 132.071 63.2304 129.05 63.2304C126.49 63.2304 124.173 62.6544 122.1 61.5024C120.052 60.3248 118.426 58.6992 117.223 56.6256C116.045 54.552 115.457 52.1968 115.457 49.56ZM151.536 36.1968V52.7856C151.536 54.6032 152.01 55.9984 152.957 56.9712C153.904 57.9184 155.236 58.392 156.951 58.392C158.692 58.392 160.036 57.9184 160.983 56.9712C161.93 55.9984 162.404 54.6032 162.404 52.7856V36.1968H167.818V52.7472C167.818 55.0256 167.319 56.9584 166.32 58.5456C165.348 60.1072 164.029 61.2848 162.365 62.0784C160.727 62.872 158.896 63.2688 156.874 63.2688C154.877 63.2688 153.06 62.872 151.421 62.0784C149.808 61.2848 148.528 60.1072 147.581 58.5456C146.634 56.9584 146.16 55.0256 146.16 52.7472V36.1968H151.536ZM186.836 63L180.923 52.5552H178.388V63H173.012V36.1968H183.073C185.147 36.1968 186.913 36.568 188.372 37.3104C189.831 38.0272 190.919 39.0128 191.636 40.2672C192.379 41.496 192.75 42.8784 192.75 44.4144C192.75 46.1808 192.238 47.7808 191.214 49.2144C190.19 50.6224 188.667 51.5952 186.644 52.1328L193.057 63H186.836ZM178.388 48.5232H182.881C184.34 48.5232 185.428 48.1776 186.145 47.4864C186.862 46.7696 187.22 45.784 187.22 44.5296C187.22 43.3008 186.862 42.3536 186.145 41.688C185.428 40.9968 184.34 40.6512 182.881 40.6512H178.388V48.5232ZM196.307 49.56C196.307 46.9232 196.895 44.568 198.073 42.4944C199.276 40.3952 200.902 38.7696 202.95 37.6176C205.023 36.44 207.34 35.8512 209.9 35.8512C212.895 35.8512 215.519 36.6192 217.772 38.1552C220.025 39.6912 221.599 41.816 222.495 44.5296H216.313C215.699 43.2496 214.828 42.2896 213.702 41.6496C212.601 41.0096 211.321 40.6896 209.862 40.6896C208.3 40.6896 206.905 41.0608 205.676 41.8032C204.473 42.52 203.526 43.544 202.835 44.8752C202.169 46.2064 201.836 47.768 201.836 49.56C201.836 51.3264 202.169 52.888 202.835 54.2448C203.526 55.576 204.473 56.6128 205.676 57.3552C206.905 58.072 208.3 58.4304 209.862 58.4304C211.321 58.4304 212.601 58.1104 213.702 57.4704C214.828 56.8048 215.699 55.832 216.313 54.552H222.495C221.599 57.2912 220.025 59.4288 217.772 60.9648C215.545 62.4752 212.921 63.2304 209.9 63.2304C207.34 63.2304 205.023 62.6544 202.95 61.5024C200.902 60.3248 199.276 58.6992 198.073 56.6256C196.895 54.552 196.307 52.1968 196.307 49.56ZM232.386 36.1968V52.7856C232.386 54.6032 232.86 55.9984 233.807 56.9712C234.754 57.9184 236.086 58.392 237.801 58.392C239.542 58.392 240.886 57.9184 241.833 56.9712C242.78 55.9984 243.254 54.6032 243.254 52.7856V36.1968H248.668V52.7472C248.668 55.0256 248.169 56.9584 247.17 58.5456C246.198 60.1072 244.879 61.2848 243.215 62.0784C241.577 62.872 239.746 63.2688 237.724 63.2688C235.727 63.2688 233.91 62.872 232.271 62.0784C230.658 61.2848 229.378 60.1072 228.431 58.5456C227.484 56.9584 227.01 55.0256 227.01 52.7472V36.1968H232.386ZM283.085 36.1968V63H277.709V45.5664L270.528 63H266.457L259.238 45.5664V63H253.862V36.1968H259.968L268.493 56.1264L277.017 36.1968H283.085ZM293.776 36.1968V63H288.4V36.1968H293.776ZM322.012 63H316.636L304.463 44.6064V63H299.087V36.1584H304.463L316.636 54.5904V36.1584H322.012V63Z" fill="#303030"/>
</svg>
